<svg width="30" height="30" viewBox="0 0 30 30" fill="none" xmlns="http://www.w3.org/2000/svg">
<path d="M9.85795 0.732244C8.50334 1.18378 6.09514 2.76416 4.43951 4.4198C-0.978934 9.83824 -1.50573 17.7401 3.23541 24.2122C6.32091 28.4265 16.1042 31.5873 18.5877 29.1038C19.1145 28.577 19.4907 26.6204 19.4907 24.739C19.4907 20.3741 20.3938 19.471 24.7587 19.471C26.6401 19.471 28.5967 19.0947 29.1235 18.568C31.607 16.0845 28.4462 6.3012 24.2319 3.2157C19.9423 0.130195 15.0506 -0.772879 9.85795 0.732244ZM14.5991 5.17236C14.5991 6.52697 14.1476 7.12902 12.8682 7.27953C11.8899 7.43004 10.9868 7.05376 10.761 6.37646C10.0085 4.4198 11.062 2.76416 12.8682 3.06518C14.1476 3.2157 14.5991 3.81775 14.5991 5.17236ZM22.1247 6.67748C22.1247 8.03209 21.6732 8.63414 20.3938 8.78465C19.4155 8.93516 18.5124 8.55888 18.2866 7.88158C17.5341 5.92492 18.5877 4.26928 20.3938 4.57031C21.6732 4.72082 22.1247 5.32287 22.1247 6.67748ZM8.5786 9.68773C8.5786 11.0423 8.12706 11.6444 6.84771 11.7949C5.86938 11.9454 4.9663 11.5691 4.74053 10.8918C3.98797 8.93516 5.04156 7.27953 6.84771 7.58055C8.12706 7.73107 8.5786 8.33312 8.5786 9.68773ZM26.6401 14.2031C26.6401 15.5577 26.1885 16.1598 24.9092 16.3103C23.9309 16.4608 23.0278 16.0845 22.802 15.4072C22.0494 13.4505 23.103 11.7949 24.9092 12.0959C26.1885 12.2464 26.6401 12.8485 26.6401 14.2031ZM7.07347 17.2133C7.07347 18.568 6.62194 19.17 5.34258 19.3205C3.53643 19.6215 2.48285 17.9659 3.23541 16.0092C3.46118 15.3319 4.36425 14.9557 5.34258 15.1062C6.62194 15.2567 7.07347 15.8587 7.07347 17.2133ZM15.7279 22.105C17.6846 24.5132 14.7496 28.2007 12.1909 26.5451C11.4383 26.0936 10.761 25.1152 10.6105 24.4379C10.0085 21.5782 13.8465 19.8473 15.7279 22.105Z" fill="white"/>
</svg>
