<svg width="30" height="32" viewBox="0 0 30 32" fill="none" xmlns="http://www.w3.org/2000/svg">
<path d="M9.9226 1.56015C6.25828 2.62891 1.60155 7.66734 0.532789 11.5607C-1.22303 18.3549 1.44887 25.4545 7.2507 29.0425C11.6021 31.7908 19.0071 31.6381 23.2821 28.8135C28.0152 25.6836 30 21.9429 30 15.9884C30 10.1102 28.0152 6.29322 23.5111 3.31597C20.2285 1.10211 13.9686 0.338709 9.9226 1.56015ZM18.4727 6.52224C19.9995 8.04904 19.9995 11.7134 18.4727 13.2402C16.9459 14.767 13.2816 14.767 11.7548 13.2402C10.228 11.7134 10.228 8.04904 11.7548 6.52224C12.3655 5.83518 13.8923 5.3008 15.1137 5.3008C16.3352 5.3008 17.862 5.83518 18.4727 6.52224ZM19.6941 19.8054C21.2209 20.1871 23.1294 21.1032 23.8928 21.7139C25.3433 22.7826 25.3433 22.9353 22.9767 25.0728C18.6254 29.1189 12.1365 29.1189 7.47972 25.2255C4.42613 22.63 4.73149 21.8666 9.46456 20.1871C13.0525 18.8893 16.1061 18.813 19.6941 19.8054Z" fill="white"/>
</svg>
