<svg width="30" height="30" viewBox="0 0 30 30" fill="none" xmlns="http://www.w3.org/2000/svg">
<path d="M12.1429 0C10.17 0 8.57143 1.59857 8.57143 3.57143V5.71429H2.85714C1.27857 5.71429 0 6.99286 0 8.57143V14.2857H2.14286C4.11571 14.2857 5.71429 15.8843 5.71429 17.8571C5.71429 19.83 4.11571 21.4286 2.14286 21.4286H0V27.1429C0 28.7214 1.27857 30 2.85714 30H8.57143V27.8571C8.57143 25.8843 10.17 24.2857 12.1429 24.2857C14.1157 24.2857 15.7143 25.8843 15.7143 27.8571V30H21.4286C23.0071 30 24.2857 28.7214 24.2857 27.1429V21.4286H26.4286C28.4014 21.4286 30 19.83 30 17.8571C30 15.8843 28.4014 14.2857 26.4286 14.2857H24.2857V8.57143C24.2857 6.99286 23.0071 5.71429 21.4286 5.71429H15.7143V3.57143C15.7143 1.59857 14.1157 0 12.1429 0Z" fill="white"/>
</svg>
