<svg width="27" height="30" viewBox="0 0 27 30" fill="none" xmlns="http://www.w3.org/2000/svg">
<path d="M13.5 0C6.873 0 1.5 5.373 1.5 12V13.5V14.8535C0.639436 15.6741 0 16.7297 0 18C0 19.863 1.28633 21.2444 2.91504 21.9199C4.86659 26.5846 8.77535 30 13.5 30C18.2246 30 22.1334 26.5846 24.085 21.9199C25.7137 21.2444 27 19.863 27 18C27 16.7297 26.3606 15.6741 25.5 14.8535V13.5V12C25.5 5.373 20.127 0 13.5 0ZM6 12H21C21.828 12 22.5 12.672 22.5 13.5V15V16.2773L23.2529 16.708C23.7084 16.9695 24 17.4225 24 18C24 18.7727 23.4468 19.3691 22.708 19.4707L21.8291 19.5938L21.5098 20.4199C19.9636 24.4493 16.8877 27 13.5 27C10.1123 27 7.03644 24.4493 5.49023 20.4199L5.1709 19.5938L4.29199 19.4707C3.55325 19.3691 3 18.7727 3 18C3 17.4225 3.29161 16.9695 3.74707 16.708L4.5 16.2773V15V13.5C4.5 12.672 5.172 12 6 12Z" fill="white"/>
</svg>
