<svg width="28" height="30" viewBox="0 0 28 30" fill="none" xmlns="http://www.w3.org/2000/svg">
<path d="M25.7692 30H18.8462C17.7838 30 16.9231 29.1392 16.9231 28.0769V21.1538C16.9231 20.3038 16.2346 19.6154 15.3846 19.6154H12.3077C11.4577 19.6154 10.7692 20.3038 10.7692 21.1538V28.0769C10.7692 29.1392 9.90846 30 8.84615 30H1.92308C0.860769 30 0 29.1392 0 28.0769V13.3946C0 11.6262 0.810769 9.95539 2.19923 8.86154L13.1315 0.246923C13.5508 -0.0823077 14.1415 -0.0823077 14.56 0.246923L25.4938 8.86154C26.8823 9.95539 27.6923 11.6254 27.6923 13.3931V28.0769C27.6923 29.1392 26.8315 30 25.7692 30Z" fill="white"/>
</svg>
